<svg width="3092" height="893" viewBox="0 0 3092 893" fill="none" xmlns="http://www.w3.org/2000/svg">
<path d="M138.805 140.389H10.1074C8.39689 140.389 7.41816 142.33 8.5339 143.626C88.3686 236.395 251.144 425.041 285.483 462.915C320.226 501.234 299.959 541.896 285.483 557.437L2.81336 888.799C1.70586 890.097 2.62846 892.097 4.33494 892.097H137.281C141.751 892.097 145.958 890.14 148.808 886.697C207.104 816.286 330.834 667.376 394.056 593.202C458.944 517.073 421.093 449.077 394.056 424.595L150.098 145.517C147.25 142.258 143.133 140.389 138.805 140.389Z" fill="#010979"/>
<path d="M782.611 140.389H911.309C913.019 140.389 913.998 142.33 912.882 143.626C833.047 236.395 670.272 425.041 635.933 462.915C601.19 501.234 621.457 541.896 635.933 557.437L918.603 888.799C919.71 890.097 918.788 892.097 917.081 892.097H784.135C779.665 892.097 775.458 890.14 772.608 886.697C714.312 816.286 590.582 667.376 527.36 593.202C462.472 517.073 500.323 449.077 527.36 424.595L771.318 145.517C774.166 142.258 778.283 140.389 782.611 140.389Z" fill="#010979"/>
<path d="M361.687 1.16214C342.075 20.7746 328.701 45.7448 323.257 72.9152C317.813 100.086 320.543 128.236 331.103 153.806C341.662 179.376 359.576 201.218 382.58 216.569C405.584 231.92 432.644 240.091 460.338 240.049C488.032 240.008 515.117 231.754 538.167 216.333C561.217 200.912 579.198 179.016 589.835 153.414C600.472 127.812 603.287 99.6533 597.926 72.4993C592.564 45.3453 579.266 20.4155 559.712 0.862305L500.215 60.3597C508.036 68.181 513.355 78.1529 515.5 89.0145C517.645 99.8761 516.519 111.14 512.264 121.38C508.009 131.621 500.817 140.38 491.597 146.548C482.377 152.717 471.543 156.018 460.465 156.035C449.387 156.051 438.563 152.783 429.362 146.642C420.16 140.502 412.995 131.765 408.771 121.537C404.547 111.309 403.455 100.049 405.633 89.1809C407.81 78.3128 413.16 68.3247 421.005 60.4797L361.687 1.16214Z" fill="#FF5900"/>
<path d="M1109.96 228.185H1243.73C1333.3 228.185 1379.81 268.965 1379.81 332.718C1379.81 436.103 1309.76 484.923 1205.84 484.923H1161.63L1143.26 596.349H1048.52L1109.96 228.185ZM1190.91 311.467L1175.98 401.641H1222.49C1254.07 401.641 1278.18 383.262 1278.18 347.077C1278.18 321.806 1262.68 311.467 1237.42 311.467H1190.91Z" fill="#FF5900"/>
<path d="M1778.39 396.472C1778.39 523.98 1684.23 604.964 1567.68 604.964C1468.93 604.964 1386.82 540.636 1386.82 428.062C1386.82 305.149 1480.98 219.57 1597.53 219.57C1696.29 219.57 1778.39 283.898 1778.39 396.472ZM1675.62 401.641C1675.62 355.118 1647.49 314.339 1588.92 314.339C1534.95 314.339 1489.59 355.118 1489.59 422.318C1489.59 468.841 1517.15 510.195 1576.29 510.195C1629.69 510.195 1675.62 469.416 1675.62 401.641Z" fill="#FF5900"/>
<path d="M2131.16 330.995C2131.16 394.175 2097.86 438.4 2042.74 459.652L2111.06 596.349H2009.44L1952.03 473.436H1914.13L1893.46 596.349H1798.73L1860.16 228.185H1993.94C2081.78 228.185 2131.16 267.816 2131.16 330.995ZM1941.12 311.467L1926.76 395.324H1973.27C2009.44 395.324 2029.54 375.221 2029.54 347.077C2029.54 325.826 2018.05 311.467 1989.35 311.467H1941.12Z" fill="#FF5900"/>
<path d="M2357.71 317.211L2311.2 596.349H2216.47L2262.98 317.211H2162.5L2177.43 228.185H2473.69L2458.76 317.211H2357.71Z" fill="#FF5900"/>
<path d="M2678.12 596.349L2664.34 526.852H2517.93L2481.76 596.349H2378.98L2583.96 228.185H2695.34L2777.44 596.349H2678.12ZM2559.84 445.867H2647.69L2623.57 324.103L2559.84 445.867Z" fill="#FF5900"/>
<path d="M2876.69 228.185H2971.43L2924.92 507.323H3092L3077.07 596.349H2815.26L2876.69 228.185Z" fill="#FF5900"/>
<path d="M1053 659.557H1104.92C1154.99 659.557 1180.37 685.647 1180.37 722.917C1180.37 777.193 1141.71 808.873 1084.66 808.873H1028.08L1053 659.557ZM1086.53 695.663L1073.72 772.767H1089.09C1117.26 772.767 1138.69 758.325 1138.69 728.042C1138.69 708.242 1128.67 695.663 1101.66 695.663H1086.53Z" fill="#010979"/>
<path d="M1350.02 727.809C1350.02 779.522 1311.83 812.367 1264.56 812.367C1224.51 812.367 1191.21 786.278 1191.21 740.621C1191.21 690.771 1229.4 656.063 1276.67 656.063C1316.72 656.063 1350.02 682.152 1350.02 727.809ZM1308.33 729.906C1308.33 711.037 1296.92 694.498 1273.17 694.498C1251.28 694.498 1232.89 711.037 1232.89 738.292C1232.89 757.16 1244.07 773.932 1268.05 773.932C1289.71 773.932 1308.33 757.393 1308.33 729.906Z" fill="#010979"/>
<path d="M1522.94 707.543C1516.89 700.322 1506.87 694.498 1493.37 694.498C1469.38 694.498 1450.06 710.804 1450.06 739.922C1450.06 761.819 1464.49 773.932 1482.42 773.932C1496.39 773.932 1508.27 768.807 1517.58 759.722L1537.14 790.704C1524.1 804.913 1503.38 812.367 1479.63 812.367C1439.11 812.367 1408.37 787.675 1408.37 742.717C1408.37 689.374 1447.49 656.063 1495.23 656.063C1521.78 656.063 1542.5 665.148 1553.44 678.192L1522.94 707.543Z" fill="#010979"/>
<path d="M1705.21 727.809C1705.21 779.522 1667.03 812.367 1619.76 812.367C1579.7 812.367 1546.41 786.278 1546.41 740.621C1546.41 690.771 1584.59 656.063 1631.86 656.063C1671.92 656.063 1705.21 682.152 1705.21 727.809ZM1663.53 729.906C1663.53 711.037 1652.12 694.498 1628.37 694.498C1606.48 694.498 1588.09 711.037 1588.09 738.292C1588.09 757.16 1599.26 773.932 1623.25 773.932C1644.9 773.932 1663.53 757.393 1663.53 729.906Z" fill="#010979"/>
<path d="M1738.38 659.557H1776.8L1757.94 772.767H1825.7L1819.64 808.873H1713.46L1738.38 659.557Z" fill="#010979"/>
<path d="M1946.64 808.873L1941.05 780.687H1881.67L1867 808.873H1825.32L1908.45 659.557H1953.62L1986.92 808.873H1946.64ZM1898.67 747.842H1934.3L1924.52 698.458L1898.67 747.842Z" fill="#010979"/>
<path d="M2106.81 732.468C2118.92 736.195 2126.84 745.746 2126.84 759.955C2126.84 786.744 2108.44 808.873 2066.29 808.873H2002.26L2007.85 775.097L2027.17 659.557H2088.18C2117.99 659.557 2134.29 673.766 2134.29 695.663C2134.29 717.56 2119.62 728.508 2106.81 732.468ZM2074.68 719.656C2086.09 719.656 2093.31 711.736 2093.31 704.049C2093.31 696.595 2088.18 693.334 2079.1 693.334H2060.01L2055.58 719.656H2074.68ZM2068.39 775.097C2079.8 775.097 2087.02 769.739 2087.02 759.722C2087.02 753.433 2081.66 749.473 2072.81 749.473H2050.69L2046.27 775.097H2068.39Z" fill="#010979"/>
<path d="M2300.09 727.809C2300.09 779.522 2261.9 812.367 2214.63 812.367C2174.58 812.367 2141.28 786.278 2141.28 740.621C2141.28 690.771 2179.47 656.063 2226.74 656.063C2266.79 656.063 2300.09 682.152 2300.09 727.809ZM2258.41 729.906C2258.41 711.037 2247 694.498 2223.25 694.498C2201.36 694.498 2182.96 711.037 2182.96 738.292C2182.96 757.16 2194.14 773.932 2218.12 773.932C2239.78 773.932 2258.41 757.393 2258.41 729.906Z" fill="#010979"/>
<path d="M2443.16 701.254C2443.16 726.877 2429.66 744.814 2407.3 753.433L2435.01 808.873H2393.8L2370.51 759.023H2355.14L2346.76 808.873H2308.34L2333.25 659.557H2387.51C2423.14 659.557 2443.16 675.63 2443.16 701.254ZM2366.09 693.334L2360.27 727.343H2379.13C2393.8 727.343 2401.95 719.19 2401.95 707.776C2401.95 699.157 2397.29 693.334 2385.65 693.334H2366.09Z" fill="#010979"/>
<path d="M2561.07 808.873L2555.48 780.687H2496.1L2481.43 808.873H2439.75L2522.88 659.557H2568.06L2601.35 808.873H2561.07ZM2513.1 747.842H2548.73L2538.95 698.458L2513.1 747.842Z" fill="#010979"/>
<path d="M2641.61 659.557H2693.54C2743.6 659.557 2768.98 685.647 2768.98 722.917C2768.98 777.193 2730.33 808.873 2673.28 808.873H2616.69L2641.61 659.557ZM2675.14 695.663L2662.33 772.767H2677.7C2705.88 772.767 2727.3 758.325 2727.3 728.042C2727.3 708.242 2717.29 695.663 2690.28 695.663H2675.14Z" fill="#010979"/>
<path d="M2938.63 727.809C2938.63 779.522 2900.44 812.367 2853.17 812.367C2813.12 812.367 2779.82 786.278 2779.82 740.621C2779.82 690.771 2818.01 656.063 2865.28 656.063C2905.33 656.063 2938.63 682.152 2938.63 727.809ZM2896.95 729.906C2896.95 711.037 2885.54 694.498 2861.79 694.498C2839.9 694.498 2821.5 711.037 2821.5 738.292C2821.5 757.16 2832.68 773.932 2856.66 773.932C2878.32 773.932 2896.95 757.393 2896.95 729.906Z" fill="#010979"/>
<path d="M3081.7 701.254C3081.7 726.877 3068.19 744.814 3045.84 753.433L3073.55 808.873H3032.33L3009.05 759.023H2993.68L2985.3 808.873H2946.88L2971.79 659.557H3026.05C3061.67 659.557 3081.7 675.63 3081.7 701.254ZM3004.62 693.334L2998.8 727.343H3017.66C3032.33 727.343 3040.48 719.19 3040.48 707.776C3040.48 699.157 3035.83 693.334 3024.18 693.334H3004.62Z" fill="#010979"/>
</svg>
