<svg width="2177" height="2339" viewBox="0 0 2177 2339" fill="none" xmlns="http://www.w3.org/2000/svg">
<path d="M337.087 563H17.9343C16.2238 563 15.2249 564.918 16.3406 566.214C203.464 783.67 592.572 1234.65 674.22 1324.7C756.273 1415.2 708.409 1511.23 674.22 1547.94L2.81336 2335C1.70586 2336.3 2.62848 2338.3 4.33497 2338.3H333.824C338.294 2338.3 342.42 2336.44 345.27 2332.99C480.201 2169.98 779.056 1810.24 930.635 1632.4C1083.88 1452.61 994.488 1292.02 930.635 1234.2L348.38 568.128C345.532 564.869 341.415 563 337.087 563Z" fill="#010979"/>
<path d="M1839 563H2158.16C2159.87 563 2160.87 564.918 2159.75 566.214C1972.63 783.67 1583.52 1234.65 1501.87 1324.7C1419.82 1415.2 1467.68 1511.23 1501.87 1547.94L2173.28 2335C2174.39 2336.3 2173.46 2338.3 2171.76 2338.3H1842.27C1837.8 2338.3 1833.67 2336.44 1830.82 2332.99C1695.89 2169.98 1397.04 1810.24 1245.46 1632.4C1092.21 1452.61 1181.6 1292.02 1245.46 1234.2L1827.71 568.128C1830.56 564.869 1834.68 563 1839 563Z" fill="#010979"/>
<mask id="mask0_1_120" style="mask-type:alpha" maskUnits="userSpaceOnUse" x="756" y="233" width="663" height="566">
<path d="M854.19 234.19C807.872 280.509 776.287 339.48 763.43 403.648C750.573 467.816 757.021 534.298 781.959 594.686C806.897 655.075 849.205 706.658 903.532 742.913C957.86 779.167 1021.77 798.466 1087.17 798.366C1152.58 798.267 1216.54 778.776 1270.98 742.356C1325.42 705.937 1367.88 654.225 1393 593.761C1418.12 533.297 1424.77 466.795 1412.11 402.666C1399.45 338.537 1368.04 279.661 1321.86 233.482L1181.35 373.996C1199.82 392.468 1212.38 416.018 1217.45 441.67C1222.51 467.321 1219.85 493.922 1209.8 518.108C1199.76 542.293 1182.77 562.978 1161 577.546C1139.22 592.114 1113.63 599.91 1087.47 599.95C1061.31 599.99 1035.75 592.27 1014.02 577.768C992.285 563.267 975.362 542.633 965.387 518.478C955.412 494.322 952.833 467.73 957.976 442.063C963.118 416.396 975.752 392.807 994.28 374.279L854.19 234.19Z" fill="black"/>
</mask>
<g mask="url(#mask0_1_120)">
<path d="M853.482 701.862C899.661 748.041 958.537 779.447 1022.67 792.11C1086.8 804.773 1153.3 798.123 1213.76 773.002C1274.23 747.881 1325.94 705.417 1362.36 650.98C1398.78 596.542 1418.27 532.577 1418.37 467.172C1418.47 401.766 1399.17 337.859 1362.91 283.532C1326.66 229.205 1275.07 186.897 1214.69 161.959C1154.3 137.021 1087.82 130.573 1023.65 143.43C959.481 156.287 900.509 187.872 854.19 234.19L994.28 374.279C1012.81 355.752 1036.4 343.118 1062.06 337.975C1087.73 332.833 1114.32 335.412 1138.48 345.387C1162.63 355.362 1183.27 372.285 1197.77 394.016C1212.27 415.747 1219.99 441.31 1219.95 467.472C1219.91 493.634 1212.11 519.22 1197.55 540.995C1182.98 562.77 1162.29 579.756 1138.11 589.804C1113.92 599.853 1087.32 602.512 1061.67 597.447C1036.02 592.382 1012.47 579.82 993.996 561.348L853.482 701.862Z" fill="#010979"/>
<path d="M853.482 701.862C807.304 655.684 775.898 596.808 763.235 532.679C750.572 468.55 757.222 402.048 782.343 341.584C807.464 281.119 849.928 229.408 904.365 192.988C958.802 156.569 1022.77 137.077 1088.17 136.978C1153.58 136.879 1217.49 156.177 1271.81 192.432C1326.14 228.687 1368.45 280.27 1393.39 340.658C1418.32 401.047 1424.77 467.529 1411.91 531.696C1399.06 595.864 1367.47 654.836 1321.15 701.154L1181.07 561.065C1199.59 542.538 1212.23 518.949 1217.37 493.282C1222.51 467.615 1219.93 441.022 1209.96 416.867C1199.98 392.711 1183.06 372.078 1161.33 357.576C1139.6 343.074 1114.03 335.355 1087.87 335.395C1061.71 335.434 1036.12 343.231 1014.35 357.799C992.575 372.366 975.589 393.051 965.541 417.237C955.492 441.423 952.832 468.023 957.897 493.675C962.963 519.326 975.525 542.877 993.996 561.348L853.482 701.862Z" fill="#FF5900"/>
</g>
</svg>
